<svg width="198" height="198" viewBox="0 0 198 198" fill="none" xmlns="http://www.w3.org/2000/svg">
<path d="M166.07 155.646C163.52 153.874 161.395 151.559 159.846 148.868C157.198 144.252 156.376 138.811 157.543 133.618C158.709 128.426 161.778 123.859 166.146 120.817C166.562 120.532 166.855 120.101 166.968 119.609C167.08 119.118 167.004 118.602 166.754 118.164L157.703 102.487C157.45 102.051 157.042 101.727 156.56 101.579C156.078 101.431 155.558 101.47 155.104 101.688C152.283 103.025 149.199 103.716 146.076 103.713C140.75 103.697 135.623 101.685 131.708 98.0729C127.793 94.4612 125.375 89.5128 124.931 84.205C124.893 83.7018 124.666 83.2315 124.297 82.8877C123.927 82.5438 123.442 82.3515 122.937 82.349H104.775C104.27 82.3515 103.785 82.5438 103.415 82.8877C103.046 83.2315 102.819 83.7018 102.781 84.205C102.337 89.5128 99.9187 94.4612 96.0039 98.0729C92.0891 101.685 86.9623 103.697 81.6359 103.713C78.5136 103.716 75.4297 103.025 72.6081 101.688C72.1538 101.47 71.6339 101.431 71.1522 101.579C70.6705 101.727 70.2623 102.051 70.0091 102.487L60.9581 118.164C60.7082 118.602 60.632 119.118 60.7447 119.609C60.8574 120.101 61.1507 120.532 61.5664 120.817C65.9338 123.859 69.0033 128.426 70.1695 133.618C71.3358 138.811 70.5141 144.252 67.8667 148.868C66.3177 151.559 64.192 153.874 61.6422 155.646C61.2275 155.93 60.9351 156.361 60.8233 156.851C60.7115 157.342 60.7884 157.857 61.0387 158.293L70.095 173.979C70.3488 174.413 70.7565 174.737 71.2374 174.885C71.7183 175.034 72.2374 174.997 72.692 174.781C77.5067 172.534 82.9877 172.17 88.0573 173.76C93.127 175.349 97.4187 178.778 100.089 183.371C101.64 186.05 102.581 189.039 102.843 192.124C102.883 192.625 103.11 193.093 103.479 193.435C103.847 193.776 104.331 193.967 104.834 193.968H122.878C123.381 193.967 123.865 193.776 124.234 193.435C124.602 193.093 124.829 192.625 124.869 192.124C125.132 189.039 126.072 186.05 127.624 183.371C130.294 178.778 134.585 175.349 139.655 173.76C144.725 172.17 150.205 172.534 155.02 174.781C155.475 174.996 155.994 175.034 156.475 174.885C156.956 174.737 157.363 174.413 157.617 173.979L166.673 158.293C166.924 157.857 167.001 157.342 166.889 156.851C166.777 156.361 166.485 155.93 166.07 155.646ZM130.24 148.298C128.828 150.956 126.653 153.13 123.996 154.543C120.897 156.275 117.406 157.184 113.856 157.184C110.306 157.184 106.815 156.275 103.716 154.543C101.059 153.13 98.8843 150.956 97.4718 148.298C89.7435 133.742 100.094 119.134 113.856 119.133C127.618 119.134 137.969 133.742 130.24 148.298Z" fill="#00BE50"/>
<path d="M52.9011 89.0525C53.9146 87.594 55.2386 86.3781 56.7778 85.4921C59.4186 83.9776 62.531 83.5077 65.5012 84.1748C68.4714 84.8419 71.0839 86.5977 72.8234 89.0959C72.9866 89.3337 73.2333 89.5015 73.5145 89.5659C73.7956 89.6304 74.0907 89.5868 74.3413 89.4438L83.3088 84.2665C83.558 84.1217 83.7435 83.8882 83.8283 83.6127C83.913 83.3371 83.8907 83.0397 83.7658 82.7799C83.0011 81.1659 82.6055 79.4018 82.6077 77.6158C82.6167 74.569 83.7678 71.6364 85.8337 69.3971C87.8996 67.1577 90.7302 65.7745 93.7664 65.5206C94.0542 65.4985 94.3232 65.3689 94.5199 65.1576C94.7166 64.9463 94.8266 64.6687 94.828 64.38V53.9907C94.8266 53.702 94.7166 53.4244 94.5199 53.2131C94.3232 53.0018 94.0542 52.8722 93.7664 52.85C90.7302 52.5961 87.8996 51.2129 85.8337 48.9736C83.7678 46.7343 82.6167 43.8016 82.6077 40.7549C82.6055 38.9689 83.0011 37.2048 83.7658 35.5908C83.8907 35.3309 83.913 35.0336 83.8283 34.758C83.7435 34.4824 83.558 34.249 83.3088 34.1042L74.3413 28.9268C74.0907 28.7838 73.7956 28.7403 73.5145 28.8047C73.2333 28.8692 72.9866 29.0369 72.8234 29.2748C71.0839 31.773 68.4714 33.5288 65.5012 34.1959C62.531 34.863 59.4186 34.393 56.7778 32.8786C55.2386 31.9925 53.9146 30.7766 52.9011 29.3181C52.7382 29.0809 52.492 28.9137 52.2114 28.8497C51.9309 28.7857 51.6365 28.8297 51.3869 28.9729L42.4143 34.1533C42.1657 34.2984 41.9806 34.5316 41.8957 34.8067C41.8108 35.0818 41.8321 35.3787 41.9556 35.6388C43.2407 38.3929 43.449 41.5281 42.5397 44.428C41.6304 47.3279 39.6692 49.7828 37.0417 51.3101C35.5091 52.1975 33.7994 52.7356 32.0348 52.8858C31.7482 52.9085 31.4806 53.0383 31.2851 53.2492C31.0897 53.4602 30.9808 53.7369 30.98 54.0245V64.3462C30.9808 64.6338 31.0897 64.9105 31.2851 65.1214C31.4806 65.3324 31.7482 65.4621 32.0348 65.4849C33.7994 65.6351 35.5091 66.1731 37.0417 67.0605C39.6692 68.5878 41.6304 71.0427 42.5397 73.9426C43.449 76.8426 43.2407 79.9778 41.9556 82.7319C41.8321 82.9919 41.8108 83.2889 41.8957 83.564C41.9806 83.839 42.1657 84.0722 42.4143 84.2174L51.3869 89.3977C51.6365 89.5409 51.9309 89.5849 52.2114 89.521C52.492 89.457 52.7382 89.2898 52.9011 89.0525ZM57.1039 68.5574C55.5838 67.7494 54.3399 66.5055 53.5319 64.9854C52.5413 63.2128 52.0213 61.216 52.0213 59.1853C52.0213 57.1547 52.5413 55.1579 53.5319 53.3852C54.3399 51.8651 55.5838 50.6212 57.1039 49.8132C65.4304 45.3925 73.7864 51.313 73.7867 59.1853C73.7864 67.0576 65.4304 72.9782 57.1039 68.5574Z" fill="#0879F4"/>
<path d="M103.017 25.9529C104.475 26.9664 105.691 28.2903 106.577 29.8296C108.092 32.4704 108.562 35.5827 107.895 38.5529C107.227 41.5232 105.472 44.1356 102.974 45.8752C102.736 46.0384 102.568 46.2851 102.503 46.5662C102.439 46.8474 102.483 47.1425 102.626 47.393L107.803 56.3605C107.948 56.6098 108.181 56.7953 108.457 56.88C108.732 56.9647 109.03 56.9424 109.29 56.8176C110.904 56.0528 112.668 55.6572 114.454 55.6595C117.5 55.6684 120.433 56.8195 122.672 58.8855C124.912 60.9514 126.295 63.782 126.549 66.8181C126.571 67.106 126.7 67.375 126.912 67.5717C127.123 67.7684 127.401 67.8783 127.689 67.8798H138.079C138.367 67.8783 138.645 67.7684 138.856 67.5717C139.068 67.375 139.197 67.106 139.219 66.8181C139.473 63.782 140.856 60.9514 143.096 58.8855C145.335 56.8195 148.268 55.6684 151.315 55.6595C153.101 55.6572 154.865 56.0528 156.479 56.8176C156.738 56.9424 157.036 56.9647 157.311 56.88C157.587 56.7953 157.82 56.6098 157.965 56.3605L163.143 47.393C163.286 47.1425 163.329 46.8474 163.265 46.5662C163.2 46.2851 163.032 46.0384 162.795 45.8752C160.296 44.1356 158.541 41.5232 157.873 38.5529C157.206 35.5827 157.676 32.4704 159.191 29.8296C160.077 28.2903 161.293 26.9664 162.751 25.9529C162.988 25.79 163.156 25.5438 163.22 25.2632C163.284 24.9826 163.24 24.6882 163.096 24.4386L157.916 15.466C157.771 15.2174 157.538 15.0324 157.263 14.9474C156.988 14.8625 156.691 14.8839 156.431 15.0074C153.676 16.2924 150.541 16.5008 147.641 15.5915C144.741 14.6822 142.287 12.721 140.759 10.0935C139.872 8.56085 139.334 6.85119 139.184 5.08658C139.161 4.79993 139.031 4.53232 138.82 4.3369C138.609 4.14148 138.332 4.03255 138.045 4.03174H127.723C127.436 4.03255 127.159 4.14148 126.948 4.3369C126.737 4.53232 126.607 4.79993 126.584 5.08658C126.434 6.85119 125.896 8.56085 125.009 10.0935C123.482 12.721 121.027 14.6822 118.127 15.5915C115.227 16.5008 112.092 16.2924 109.338 15.0074C109.077 14.8839 108.781 14.8625 108.505 14.9474C108.23 15.0324 107.997 15.2174 107.852 15.466L102.672 24.4386C102.528 24.6883 102.484 24.9826 102.548 25.2632C102.612 25.5438 102.78 25.79 103.017 25.9529ZM123.512 30.1557C124.32 28.6356 125.564 27.3916 127.084 26.5836C128.857 25.5931 130.853 25.073 132.884 25.073C134.915 25.073 136.912 25.5931 138.684 26.5836C140.204 27.3916 141.448 28.6356 142.256 30.1557C146.677 38.4821 140.756 46.8382 132.884 46.8385C125.012 46.8382 119.091 38.4821 123.512 30.1557H123.512Z" fill="#CCD6E2"/>
</svg>
