<svg xmlns="http://www.w3.org/2000/svg" enable-background="new 0 0 512 512" viewBox="0 0 512 512" id="MoneyProtection"><path fill="#d3d5d9" d="M255.999,396.174c-6.629,0-12-5.371-12-12V93.39c0-6.629,5.371-12,12-12c6.629,0,12,5.371,12,12v290.785C267.999,390.803,262.628,396.174,255.999,396.174z" class="colord3d8d9 svgShape"></path><path fill="#7bde95" d="M255.998 4.003c-39.915 0-78.256 90.181-85.644 168.004-55.959-19.189-70.622-17.959-128.851 0C64.332 75.732 151.656 4.003 255.998 4.003zM255.998 4.003c39.915 0 78.256 90.181 85.644 168.004 55.959-19.189 70.622-17.959 128.851 0C447.664 75.732 360.339 4.003 255.998 4.003z" class="color7bde9e svgShape"></path><path fill="#fb938a" d="M341.629,172.003C334.264,94.191,295.9,4.012,255.995,4.012s-78.269,90.179-85.634,167.99C227.447,152.573,284.537,152.572,341.629,172.003z" class="colorfb8a8a svgShape"></path><path fill="#fcb7b1" d="M255.998,4.003c-25.359,0-49.72,83.88-55.8,159.64c-9.96,2.16-19.88,4.96-29.84,8.359C177.719,94.203,216.078,4.003,255.998,4.003z" class="colorfcb1b1 svgShape"></path><path fill="#ea4335" d="M341.638,172.002c-9.96-3.399-19.92-6.2-29.88-8.359c-6.04-75.76-30.4-159.64-55.761-159.64C295.919,4.003,334.278,94.203,341.638,172.002z" class="colorf96363 svgShape"></path><path fill="#7bde95" d="M255.998,4.003c-39.915,0-78.256,90.181-85.644,168.004c-55.959-19.189-70.622-17.959-128.851,0C64.332,75.732,151.656,4.003,255.998,4.003z" class="color7bde9e svgShape"></path><path fill="#4285f4" d="M255.998,4.003c-3.079,0-6.12,0.521-9.159,1.561c-90.44,10.68-163.999,75.559-186.68,160.879c-5.72,1.6-11.88,3.48-18.64,5.56C64.319,75.723,151.639,4.003,255.998,4.003z" class="colora7e9bf svgShape"></path><path fill="#34a853" d="M255.998,4.003c-39.88,0-78.24,90.2-85.639,167.999c-6-2.04-11.48-3.88-16.641-5.479c7.92-70.48,40.36-149.039,75.881-160.959C238.238,4.523,247.078,4.003,255.998,4.003z" class="color50d27e svgShape"></path><path fill="#7bde95" d="M255.998,4.003c39.915,0,78.256,90.181,85.644,168.004c55.959-19.189,70.622-17.959,128.851,0C447.664,75.732,360.339,4.003,255.998,4.003z" class="color7bde9e svgShape"></path><path fill="#4285f4" d="M358.318,166.523c-5.16,1.6-10.68,3.439-16.68,5.479c-7.4-77.8-45.72-167.999-85.64-167.999c8.921,0,17.721,0.521,26.36,1.561C317.918,17.403,350.398,96.003,358.318,166.523z" class="colora7e9bf svgShape"></path><path fill="#34a853" d="M470.493,172.002c-6.761-2.08-12.961-3.96-18.681-5.6c-22.64-85.32-96.239-150.2-186.719-160.839c-3.04-1.04-6.08-1.561-9.12-1.561C360.333,4.003,447.653,75.723,470.493,172.002z" class="color50d27e svgShape"></path><g fill="#000000" class="color000000 svgShape"><path fill="#fbdc81" d="M273.254,466.647c0,55.139-235.366,55.139-235.366,0c0-88.545,52.678-188.62,117.683-188.62C220.551,278.026,273.254,378.101,273.254,466.647z" class="colorfbb381 svgShape"></path><path fill="#fde08d" d="M216.023,402.277c0,33.372-27.06,60.432-60.463,60.432c-33.372,0-60.432-27.06-60.432-60.432c0-33.402,27.06-60.463,60.432-60.463C188.963,341.815,216.023,368.875,216.023,402.277z" class="colorfddd8d svgShape"></path><path fill="#feebb3" d="M205.674,368.439c-10.434-8.51-23.69-13.584-38.174-13.584c-33.387,0-60.473,27.045-60.473,60.432c0,12.52,3.805,24.182,10.311,33.796c-13.542-11.088-22.217-27.945-22.217-46.807c0-33.387,27.086-60.473,60.432-60.473C176.419,341.803,194.831,352.36,205.674,368.439z" class="colorfee8b3 svgShape"></path><path fill="#fdd767" d="M216.023,402.237c0,33.388-27.044,60.473-60.432,60.473c-20.867,0-39.279-10.597-50.162-26.677c10.393,8.511,23.731,13.625,38.215,13.625c33.428,0,60.473-27.045,60.473-60.432c0-12.52-3.805-24.181-10.311-33.796C207.348,366.477,216.023,383.334,216.023,402.237z" class="colorfdd267 svgShape"></path><path fill="#333333" d="M155.558,466.71c-35.527,0-64.429-28.906-64.429-64.433c0-35.543,28.902-64.461,64.429-64.461c35.547,0,64.465,28.918,64.465,64.461C220.023,437.804,191.105,466.71,155.558,466.71z M155.558,345.816c-31.117,0-56.429,25.328-56.429,56.461c0,31.117,25.312,56.433,56.429,56.433c31.137,0,56.465-25.316,56.465-56.433C212.023,371.144,186.695,345.816,155.558,345.816z" class="color333333 svgShape"></path><path fill="#333333" d="M174.086,409.656c-2.937-5.78-8.294-9.721-14.512-10.947v-25.258c3.092,1.025,5.796,3.221,7.375,6.346c0.992,1.969,3.387,2.77,5.371,1.77c1.973-0.992,2.766-3.398,1.77-5.371c-2.98-5.914-8.459-9.699-14.516-10.904v-3.064c0-2.211-1.789-4-4-4s-4,1.789-4,4v3.054c-1.808,0.353-3.603,0.86-5.328,1.724c-10.195,5.137-14.324,17.629-9.191,27.859c2.943,5.792,8.302,9.736,14.519,10.961v25.258c-3.23-1.066-5.849-3.327-7.383-6.363c-0.996-1.973-3.398-2.777-5.371-1.77c-1.973,0.992-2.766,3.398-1.77,5.371c2.492,4.945,6.762,8.625,12.019,10.363c0.826,0.272,1.665,0.445,2.504,0.613v3c0,2.211,1.789,4,4,4s4-1.789,4-4v-2.978c1.826-0.363,3.617-0.946,5.324-1.808c4.945-2.492,8.625-6.762,10.363-12.019C177,420.234,176.586,414.613,174.086,409.656z M144.195,391.257c-3.148-6.277-0.613-13.953,5.645-17.105c0.564-0.284,1.15-0.471,1.734-0.663v24.104C148.427,396.55,145.754,394.326,144.195,391.257z M167.664,422.984c-1.066,3.23-3.328,5.852-6.367,7.387c-0.558,0.28-1.141,0.471-1.723,0.666v-24.098c3.147,1.044,5.818,3.267,7.375,6.33C168.476,416.304,168.73,419.753,167.664,422.984z" class="color333333 svgShape"></path><path fill="#fce7ab" d="M166.979,507.814c-62.381,1.91-129.074-11.818-129.074-41.181c0-88.518,52.67-188.59,117.651-188.59c3.851,0,7.637,0.362,11.39,1.053C107.297,289.86,60.685,383.349,60.685,466.633C60.685,492.408,112.169,506.135,166.979,507.814z" class="colorfcccab svgShape"></path><path fill="#fbbc05" d="M273.254,466.633c0,29.364-66.693,43.091-129.074,41.181c54.776-1.679,106.261-15.406,106.261-41.181c0-83.284-46.645-176.773-106.294-187.537c3.752-0.691,7.571-1.053,11.423-1.053C220.552,278.042,273.254,378.115,273.254,466.633z" class="colorfa9957 svgShape"></path><path fill="#fbdc81" d="M215.146,218.956l-33.071,66.664c-8.445-4.212-17.328-6.506-26.503-6.506c-9.488,0-18.683,2.46-27.4,6.944l-32.175-64.433c13.2-6.985,29.819-7.569,44.978-5.567c19.017,2.502,37.763,8.362,56.885,7.444C203.886,223.21,210.1,222.167,215.146,218.956z" class="colorfbb381 svgShape"></path><path fill="#fce7ab" d="M112.762,217.703l31.306,62.644c-5.432,1.119-10.764,3.061-15.9,5.728L96.006,221.62c6.584-3.457,13.99-5.366,21.661-6.156C115.988,216.123,114.342,216.88,112.762,217.703z" class="colorfcccab svgShape"></path><path fill="#fbbc05" d="M215.146,219.365l-33.083,66.693c-4.082-2.041-8.23-3.621-12.509-4.707l28.508-57.443C204.019,223.612,210.142,222.558,215.146,219.365z" class="colorfa9957 svgShape"></path><path fill="#fb938a" d="M199.615,278.678c0,3.232-1.327,6.175-3.449,8.321c-2.123,2.123-5.065,3.449-8.322,3.449h-64.546c-6.512,0-11.77-5.282-11.77-11.77c0-3.256,1.327-6.199,3.449-8.321c2.122-2.147,5.065-3.449,8.321-3.449h64.546C194.357,266.907,199.615,272.165,199.615,278.678z" class="colorfb8a8a svgShape"></path><path fill="#fcb7b1" d="M137.286,290.453h-13.99c-6.518,0-11.752-5.3-11.752-11.785c0-3.259,1.317-6.189,3.424-8.296c2.139-2.173,5.07-3.457,8.328-3.457h13.99c-3.259,0-6.221,1.284-8.329,3.457c-2.106,2.106-3.457,5.037-3.457,8.296C125.501,285.153,130.768,290.453,137.286,290.453z" class="colorfcb1b1 svgShape"></path><path fill="#ea4335" d="M199.615,278.668c0,3.226-1.316,6.188-3.456,8.328c-2.107,2.14-5.037,3.457-8.296,3.457h-13.99c3.258,0,6.188-1.317,8.328-3.457c2.107-2.14,3.424-5.102,3.424-8.328c0-6.518-5.234-11.752-11.751-11.752h13.99C194.349,266.916,199.615,272.15,199.615,278.668z" class="colorf96363 svgShape"></path><path fill="#fde08d" d="M380.419 353.271v27.711c0 3.464-2.804 6.268-6.268 6.268H245.227c-3.463 0-6.268-2.804-6.268-6.268v-27.711c0-3.464 2.805-6.268 6.268-6.268H374.15C377.615 347.003 380.419 349.807 380.419 353.271zM380.419 393.519v27.711c0 3.464-2.804 6.268-6.268 6.268H245.227c-3.463 0-6.268-2.804-6.268-6.268v-27.711c0-3.464 2.805-6.268 6.268-6.268H374.15C377.615 387.25 380.419 390.054 380.419 393.519zM380.419 433.766v27.711c0 3.464-2.804 6.268-6.268 6.268H245.227c-3.463 0-6.268-2.804-6.268-6.268v-27.711c0-3.464 2.805-6.268 6.268-6.268H374.15C377.615 427.498 380.419 430.302 380.419 433.766zM380.419 474.014v27.711c0 3.464-2.804 6.268-6.268 6.268H245.227c-3.463 0-6.268-2.804-6.268-6.268v-27.711c0-3.464 2.805-6.268 6.268-6.268H374.15C377.615 467.746 380.419 470.55 380.419 474.014z" class="colorfddd8d svgShape"></path><path fill="#feebb3" d="M266.26 387.232h-21.035c-3.461 0-6.261-2.799-6.261-6.26v-27.684c0-3.5 2.799-6.299 6.261-6.299h21.035c-3.46 0-6.26 2.799-6.26 6.299v27.684C260 384.432 262.8 387.232 266.26 387.232zM266.26 427.514h-21.035c-3.461 0-6.261-2.838-6.261-6.299v-27.684c0-3.461 2.799-6.299 6.261-6.299h21.035c-3.46 0-6.26 2.838-6.26 6.299v27.684C260 424.676 262.8 427.514 266.26 427.514zM266.26 467.758h-21.035c-3.461 0-6.261-2.8-6.261-6.299v-27.684c0-3.461 2.799-6.26 6.261-6.26h21.035c-3.46 0-6.26 2.799-6.26 6.26v27.684C260 464.958 262.8 467.758 266.26 467.758z" class="colorfee8b3 svgShape"></path><path fill="#feebb3" d="M266.26,508.001h-21.035c-3.461,0-6.261-2.799-6.261-6.26v-27.724c0-3.46,2.799-6.26,6.261-6.26h21.035c-3.46,0-6.26,2.799-6.26,6.26v27.724C260,505.202,262.8,508.001,266.26,508.001z" class="colorfee8b3 svgShape"></path><path fill="#fdd767" d="M380.419 353.287v27.684c0 3.461-2.838 6.26-6.299 6.26h-20.996c3.461 0 6.26-2.799 6.26-6.26v-27.684c0-3.5-2.798-6.299-6.26-6.299h20.996C377.58 346.988 380.419 349.788 380.419 353.287zM380.419 393.531v27.684c0 3.461-2.838 6.299-6.299 6.299h-20.996c3.461 0 6.26-2.838 6.26-6.299v-27.684c0-3.461-2.798-6.299-6.26-6.299h20.996C377.58 387.232 380.419 390.07 380.419 393.531zM380.419 433.774v27.684c0 3.5-2.838 6.299-6.299 6.299h-20.996c3.461 0 6.26-2.8 6.26-6.299v-27.684c0-3.461-2.798-6.26-6.26-6.26h20.996C377.58 427.514 380.419 430.314 380.419 433.774zM380.419 474.018v27.724c0 3.46-2.838 6.26-6.299 6.26h-20.996c3.461 0 6.26-2.799 6.26-6.26v-27.724c0-3.46-2.798-6.26-6.26-6.26h20.996C377.58 467.758 380.419 470.557 380.419 474.018z" class="colorfdd267 svgShape"></path><g fill="#000000" class="color000000 svgShape"><path fill="#fde08d" d="M474.107 393.519v27.711c0 3.464-2.804 6.268-6.268 6.268H338.915c-3.463 0-6.268-2.804-6.268-6.268v-27.711c0-3.464 2.805-6.268 6.268-6.268h128.924C471.303 387.25 474.107 390.054 474.107 393.519zM474.107 433.766v27.711c0 3.464-2.804 6.268-6.268 6.268H338.915c-3.463 0-6.268-2.804-6.268-6.268v-27.711c0-3.464 2.805-6.268 6.268-6.268h128.924C471.303 427.498 474.107 430.302 474.107 433.766zM474.107 474.014v27.711c0 3.464-2.804 6.268-6.268 6.268H338.915c-3.463 0-6.268-2.804-6.268-6.268v-27.711c0-3.464 2.805-6.268 6.268-6.268h128.924C471.303 467.746 474.107 470.55 474.107 474.014z" class="colorfddd8d svgShape"></path><path fill="#feebb3" d="M359.948 427.514h-21.035c-3.461 0-6.261-2.838-6.261-6.299v-27.684c0-3.461 2.799-6.299 6.261-6.299h21.035c-3.46 0-6.26 2.838-6.26 6.299v27.684C353.689 424.676 356.488 427.514 359.948 427.514zM359.948 467.758h-21.035c-3.461 0-6.261-2.8-6.261-6.299v-27.684c0-3.461 2.799-6.26 6.261-6.26h21.035c-3.46 0-6.26 2.799-6.26 6.26v27.684C353.689 464.958 356.488 467.758 359.948 467.758z" class="colorfee8b3 svgShape"></path><path fill="#feebb3" d="M359.948,508.001h-21.035c-3.461,0-6.261-2.799-6.261-6.26v-27.724c0-3.46,2.799-6.26,6.261-6.26h21.035c-3.46,0-6.26,2.799-6.26,6.26v27.724C353.689,505.202,356.488,508.001,359.948,508.001z" class="colorfee8b3 svgShape"></path><path fill="#fdd767" d="M474.107 393.531v27.684c0 3.461-2.838 6.299-6.299 6.299h-20.996c3.461 0 6.26-2.838 6.26-6.299v-27.684c0-3.461-2.798-6.299-6.26-6.299h20.996C471.269 387.232 474.107 390.07 474.107 393.531zM474.107 433.774v27.684c0 3.5-2.838 6.299-6.299 6.299h-20.996c3.461 0 6.26-2.8 6.26-6.299v-27.684c0-3.461-2.798-6.26-6.26-6.26h20.996C471.269 427.514 474.107 430.314 474.107 433.774zM474.107 474.018v27.724c0 3.46-2.838 6.26-6.299 6.26h-20.996c3.461 0 6.26-2.799 6.26-6.26v-27.724c0-3.46-2.798-6.26-6.26-6.26h20.996C471.269 467.758 474.107 470.557 474.107 474.018z" class="colorfdd267 svgShape"></path><path fill="#333333" d="M478.099,393.519c0-5.68-4.6-10.279-10.28-10.279H384.14c0.16-0.721,0.28-1.48,0.28-2.24v-27.72c0-5.681-4.601-10.28-10.28-10.28H271.98V162.08c22.84,1.439,45.68,6,68.36,13.72h0.04c0.08,0.04,0.2,0.04,0.28,0.04c0.279,0.08,0.56,0.12,0.84,0.16h0.12c0.119,0,0.199-0.04,0.279-0.04c0.24,0,0.521-0.04,0.761-0.12c0.12-0.04,0.2,0,0.279-0.04c55.72-19.12,69-17.68,126.36,0.04c1.4,0.4,2.88,0.08,3.92-0.92c1.04-0.96,1.48-2.439,1.16-3.84C450.5,70.36,360.7,0.001,255.98,0.001C151.301,0.001,61.501,70.36,37.621,171.08c-0.32,1.4,0.119,2.88,1.16,3.84c1.039,1,2.52,1.32,3.92,0.92c57.359-17.72,70.639-19.16,126.359-0.04c0.44,0.12,0.88,0.2,1.28,0.2c0.44,0,0.88-0.08,1.28-0.2c0,0,0,0,0.04,0c22.68-7.72,45.479-12.28,68.319-13.72v171.439c-11.42-18.549-25.09-34.033-40.284-44.547c2.5-2.89,3.921-6.485,3.921-10.297c0-5.49-2.828-10.322-7.096-13.146l22.219-44.809c0.801-1.6,0.4-3.52-0.92-4.72c-1.359-1.2-3.319-1.36-4.84-0.4c-3.68,2.32-8.56,3.561-15.319,3.92c-12.28,0.601-24.32-1.72-37.04-4.16c-6.24-1.199-12.681-2.439-19.12-3.279c-18.88-2.48-35.24-0.4-47.36,6c-1.92,1.04-2.68,3.4-1.72,5.32l21.353,42.78c-0.557,0.428-1.125,0.841-1.626,1.347c-2.98,2.98-4.621,6.937-4.621,11.148c0,3.934,1.498,7.49,3.887,10.255C65.51,320.666,33.901,397.952,33.901,466.639c0,10.24,6.84,24.641,39.56,34.841c21.72,6.8,50.88,10.52,82.12,10.52c28.559,0,57.159-3.16,79.439-9.72c0.32,5.439,4.761,9.72,10.2,9.72h222.599c5.681,0,10.28-4.6,10.28-10.28V474c0-2.36-0.84-4.52-2.2-6.24c1.36-1.76,2.2-3.92,2.2-6.279V433.76c0-2.359-0.84-4.52-2.2-6.279c1.36-1.721,2.2-3.881,2.2-6.24L478.099,393.519L478.099,393.519z M187.844,286.449h-64.547c-4.285,0-7.77-3.488-7.77-7.773c0-2.074,0.809-4.023,2.293-5.508c1.441-1.457,3.387-2.262,5.477-2.262h64.547c4.285,0,7.773,3.484,7.773,7.77c0,2.055-0.816,4.016-2.273,5.492C191.867,285.641,189.918,286.449,187.844,286.449z M101.381,223.481c12.84-5.36,28.08-4.92,39.08-3.44c6.2,0.8,12.519,2,18.68,3.2c12.6,2.399,25.641,4.88,38.92,4.24c3.28-0.16,6.24-0.521,8.92-1.08l-18.141,36.606c-0.336-0.021-0.655-0.101-0.996-0.101h-64.547c-0.727,0-1.43,0.113-2.136,0.208L101.381,223.481z M237.14,387.24c-1.359,1.76-2.16,3.92-2.16,6.279v27.721c0,2.359,0.801,4.52,2.16,6.279c-1.359,1.721-2.16,3.881-2.16,6.24v27.721c0,2.359,0.801,4.52,2.16,6.279c-1.359,1.721-2.16,3.88-2.16,6.24v19.8c-20.16,6.36-47.88,10.2-79.399,10.2c-64.8,0-113.68-16.04-113.68-37.36c0-66.516,32.088-144.018,76.921-172.915c1.429,0.427,2.911,0.726,4.476,0.726h59.112c0.629,7.893-2.06,19.869-20.101,29.207c-1.961,1.016-2.727,3.426-1.711,5.391c0.711,1.371,2.105,2.16,3.555,2.16c0.617,0,1.246-0.145,1.836-0.449c19.349-10.014,23.975-23.271,24.433-32.705c5.543,7.85,8.457,19.022-0.43,33.174c-1.176,1.871-0.613,4.34,1.258,5.516c0.664,0.414,1.398,0.613,2.125,0.613c1.332,0,2.633-0.664,3.391-1.871c9.186-14.627,7.719-26.895,3.735-35.693c14.177,11.381,26.868,27.496,37.319,46.449c-1.72,1.84-2.84,4.279-2.84,7.04V381C234.98,383.32,235.781,385.48,237.14,387.24z M374.14,351c1.28,0,2.28,1,2.28,2.28V381c0,1.24-1,2.24-2.28,2.24H245.22c-1.24,0-2.24-1-2.24-2.24v-27.72c0-1.28,1-2.28,2.24-2.28H374.14z M247.98,343V161.68c5.32-0.16,10.681-0.16,16,0V343H247.98z M464.86,166.12c-51.56-15.64-68.2-16.8-119.8,0.479C338.02,102.519,311.3,33.76,279.701,9.32C367.94,18.721,441.54,80.241,464.86,166.12z M166.9,166.6c-51.559-17.279-68.199-16.119-119.759-0.479c23.32-85.88,96.88-147.4,185.159-156.799C200.701,33.761,173.98,102.52,166.9,166.6z M174.98,166.281c8.561-74.56,44.801-158.28,81-158.28c36.24,0,72.48,83.719,81.04,158.28C283.22,149.241,228.781,149.241,174.98,166.281z M328.94,503.999h-83.72c-1.24,0-2.24-1.04-2.24-2.28v-27.72c0-1.24,1-2.24,2.24-2.24h83.719c-0.159,0.721-0.279,1.48-0.279,2.24v27.72C328.66,502.52,328.739,503.279,328.94,503.999z M328.94,463.759h-83.72c-1.24,0-2.24-1.04-2.24-2.279v-27.721c0-1.24,1-2.279,2.24-2.279h83.719c-0.159,0.72-0.279,1.479-0.279,2.279v27.721C328.66,462.279,328.78,463.039,328.94,463.759z M328.94,423.48h-83.72c-1.24,0-2.24-1-2.24-2.24v-27.721c0-1.239,1-2.279,2.24-2.279h83.719c-0.2,0.72-0.279,1.479-0.279,2.279v27.721C328.66,421.999,328.78,422.759,328.94,423.48z M470.099,501.719c0,1.24-1,2.28-2.28,2.28H338.9c-1.239,0-2.239-1.04-2.239-2.28v-27.72c0-1.24,1-2.24,2.239-2.24h128.919c1.28,0,2.28,1,2.28,2.24V501.719z M470.099,461.48c0,1.239-1,2.279-2.28,2.279H338.9c-1.239,0-2.239-1.04-2.239-2.279v-27.721c0-1.24,1-2.279,2.239-2.279h128.919c1.28,0,2.28,1.039,2.28,2.279V461.48z M470.099,421.24c0,1.24-1,2.24-2.28,2.24H338.9c-1.239,0-2.239-1-2.239-2.24v-27.721c0-1.239,1-2.279,2.239-2.279h128.919c1.28,0,2.28,1.04,2.28,2.279V421.24z" class="color333333 svgShape"></path></g></g></svg>