<svg width="29" height="30" viewBox="0 0 29 30" fill="none" xmlns="http://www.w3.org/2000/svg">
<path d="M26.7726 1.5438C26.2752 1.26701 25.7281 1.09099 25.1626 1.02581C24.5971 0.960621 24.0243 1.00755 23.477 1.1639C22.9296 1.32026 22.4185 1.58298 21.9727 1.93703C21.527 2.29108 21.1554 2.72953 20.8793 3.2273L12.8344 17.705L8.23028 13.1008C7.83054 12.6869 7.35238 12.3568 6.8237 12.1297C6.29501 11.9026 5.72639 11.783 5.15102 11.778C4.57564 11.773 4.00503 11.8827 3.47248 12.1006C2.93993 12.3185 2.4561 12.6402 2.04923 13.0471C1.64236 13.454 1.3206 13.9378 1.10272 14.4703C0.884834 15.0029 0.775193 15.5735 0.780193 16.1489C0.785193 16.7242 0.904733 17.2929 1.13184 17.8216C1.35894 18.3502 1.68907 18.8284 2.10294 19.2281L10.7696 27.8948C11.5886 28.716 12.6936 29.1666 13.8333 29.1666L14.4334 29.1233C15.0976 29.0304 15.7312 28.7846 16.2843 28.4052C16.8373 28.0259 17.2948 27.5233 17.6206 26.9371L28.4539 7.43713C28.7305 6.93977 28.9064 6.39281 28.9716 5.82747C29.0368 5.26213 28.99 4.68948 28.8339 4.14223C28.6778 3.59498 28.4154 3.08384 28.0617 2.638C27.708 2.19216 27.27 1.82035 26.7726 1.5438Z" fill="#303030"/>
</svg>
