<svg width="198" height="198" viewBox="0 0 198 198" fill="none" xmlns="http://www.w3.org/2000/svg">
<path d="M40.6263 83.6704H20.7799C19.1617 83.6704 17.8499 84.9822 17.8499 86.6004V148.541C17.8499 150.159 19.1617 151.471 20.7799 151.471H40.6263C42.2446 151.471 43.5564 150.159 43.5564 148.541V86.6004C43.5564 84.9822 42.2446 83.6704 40.6263 83.6704Z" fill="#CCD6E2"/>
<path d="M75.6503 57.1353H55.8038C54.1856 57.1353 52.8738 58.4471 52.8738 60.0653V127.139C52.8738 128.758 54.1856 130.069 55.8038 130.069H75.6503C77.2685 130.069 78.5803 128.758 78.5803 127.139V60.0653C78.5803 58.4471 77.2685 57.1353 75.6503 57.1353Z" fill="#CCD6E2"/>
<path d="M110.674 20.7234H90.8275C89.2093 20.7234 87.8975 22.0352 87.8975 23.6534V140.314C87.8975 141.932 89.2093 143.244 90.8275 143.244H110.674C112.292 143.244 113.604 141.932 113.604 140.314V23.6534C113.604 22.0352 112.292 20.7234 110.674 20.7234Z" fill="#0879F4"/>
<path d="M22.6999 172.964L7.80205 158.066C7.01479 157.279 6.57251 156.211 6.57251 155.098C6.57251 153.985 7.01479 152.917 7.80205 152.13L55.018 104.913C55.4078 104.524 55.8706 104.214 56.3799 104.003C56.8892 103.792 57.4351 103.684 57.9864 103.684C58.5377 103.684 59.0835 103.792 59.5929 104.003C60.1022 104.214 60.565 104.524 60.9548 104.913L93.388 137.347L160.358 70.3762C161.136 69.5988 162.058 68.9821 163.074 68.5614C164.09 68.1406 165.179 67.9241 166.278 67.9241C167.377 67.9241 168.466 68.1406 169.482 68.5613C170.498 68.9821 171.421 69.5987 172.198 70.3762L181.193 79.371C182.763 80.9411 183.645 83.0705 183.645 85.2909C183.645 87.5113 182.763 89.6407 181.193 91.2107L96.3564 176.047C95.9665 176.437 95.5038 176.746 94.9944 176.957C94.4851 177.168 93.9392 177.277 93.388 177.277C92.8367 177.277 92.2908 177.168 91.7815 176.957C91.2722 176.746 90.8094 176.437 90.4196 176.047L57.9864 143.614L28.6367 172.964C28.2469 173.354 27.7841 173.663 27.2748 173.874C26.7655 174.085 26.2196 174.194 25.6683 174.194C25.117 174.194 24.5711 174.085 24.0618 173.874C23.5525 173.663 23.0897 173.354 22.6999 172.964Z" fill="#00BE50"/>
<path d="M187.229 127.546H166.161C165.61 127.546 165.064 127.437 164.555 127.226C164.045 127.015 163.582 126.706 163.193 126.316C162.803 125.926 162.494 125.464 162.283 124.954C162.072 124.445 161.963 123.899 161.963 123.348V97.9777C161.963 95.7573 161.081 93.6278 159.511 92.0578C157.941 90.4877 155.811 89.6057 153.591 89.6057H128.221C127.108 89.6057 126.04 89.1634 125.252 88.3762C124.465 87.5889 124.023 86.5211 124.023 85.4078V64.3393C124.023 63.2259 124.465 62.1582 125.252 61.3709C126.04 60.5836 127.108 60.1414 128.221 60.1414H187.229C188.343 60.1414 189.411 60.5836 190.198 61.3709C190.985 62.1582 191.427 63.2259 191.427 64.3393V123.348C191.427 123.899 191.319 124.445 191.108 124.954C190.897 125.464 190.588 125.926 190.198 126.316C189.808 126.706 189.345 127.015 188.836 127.226C188.327 127.437 187.781 127.546 187.229 127.546Z" fill="#00BE50"/>
</svg>
