<svg width="136" height="136" viewBox="0 0 136 136" fill="none" xmlns="http://www.w3.org/2000/svg">
<path d="M28.1248 36.6856L37.7098 24.6729C40.1649 21.5959 41.502 17.7762 41.502 13.8398V4.40637C41.502 3.79037 41.7467 3.1996 42.1823 2.76402C42.6179 2.32844 43.2086 2.08374 43.8246 2.08374C46.4253 2.08374 48.9584 2.91224 51.0564 4.44908C53.1545 5.98592 54.7084 8.15116 55.4927 10.6308V10.6308C56.5544 13.987 56.7895 17.5501 56.1781 21.0167L55.1945 26.5935H73.4369C74.1704 26.5935 74.8951 26.7534 75.5605 27.0622C76.2258 27.371 76.8159 27.8211 77.2894 28.3813C77.763 28.9415 78.1087 29.5982 78.3024 30.3056C78.4962 31.0131 78.5333 31.7543 78.4113 32.4776L72.7426 66.0697C72.5013 67.4998 71.7613 68.7981 70.6538 69.7344C69.5462 70.6706 68.1429 71.1843 66.6926 71.1843H37.9839C36.3671 71.1843 34.7826 70.7314 33.4101 69.8768L28.1248 66.5859V36.6856Z" fill="#CCD6E2"/>
<path d="M25.8693 31.3313H7.24856C6.00294 31.3313 4.99316 32.3411 4.99316 33.5867V68.929C4.99316 70.1746 6.00294 71.1844 7.24856 71.1844H25.8693C27.1149 71.1844 28.1247 70.1746 28.1247 68.929V33.5867C28.1247 32.3411 27.1149 31.3313 25.8693 31.3313Z" fill="#00BE50"/>
<path d="M16.5591 66.5269C18.8434 66.5269 20.6951 64.6752 20.6951 62.3909C20.6951 60.1066 18.8434 58.2549 16.5591 58.2549C14.2749 58.2549 12.4231 60.1066 12.4231 62.3909C12.4231 64.6752 14.2749 66.5269 16.5591 66.5269Z" fill="white"/>
<path d="M97.3179 133.916C90.6549 133.916 84.1415 131.94 78.6014 128.239C73.0614 124.537 68.7434 119.275 66.1936 113.12C63.6437 106.964 62.9766 100.19 64.2765 93.6552C65.5764 87.1202 68.7849 81.1175 73.4964 76.406C78.2078 71.6946 84.2106 68.486 90.7455 67.1862C97.2805 65.8863 104.054 66.5534 110.21 69.1032C116.366 71.6531 121.627 75.971 125.329 81.5111C129.031 87.0512 131.007 93.5646 131.007 100.228C130.997 109.159 127.444 117.722 121.128 124.038C114.813 130.354 106.25 133.906 97.3179 133.916ZM97.3179 74.7732C92.2835 74.7732 87.3622 76.2661 83.1762 79.063C78.9903 81.86 75.7277 85.8354 73.8011 90.4866C71.8746 95.1378 71.3705 100.256 72.3526 105.193C73.3348 110.131 75.7591 114.667 79.3189 118.227C82.8788 121.786 87.4143 124.211 92.352 125.193C97.2896 126.175 102.408 125.671 107.059 123.744C111.71 121.818 115.685 118.555 118.482 114.369C121.279 110.183 122.772 105.262 122.772 100.228C122.765 93.479 120.08 87.009 115.308 82.237C110.536 77.4651 104.066 74.7808 97.3179 74.7732Z" fill="#0879F4"/>
<path d="M115.846 76.6251L72.9673 119.504L78.7898 125.326L121.668 82.4475L115.846 76.6251Z" fill="#0879F4"/>
</svg>
