<svg width="186" height="186" viewBox="0 0 186 186" fill="none" xmlns="http://www.w3.org/2000/svg">
<path d="M155.594 175.492H31.3244C31.0229 175.492 30.7259 175.419 30.4585 175.28C30.1912 175.14 29.9615 174.938 29.7889 174.691C29.6162 174.444 29.5058 174.159 29.467 173.86C29.4282 173.561 29.4621 173.257 29.5659 172.974L49.9621 117.348C50.1933 116.717 50.6127 116.173 51.1633 115.788C51.714 115.404 52.3696 115.197 53.0413 115.197H133.877C134.549 115.197 135.204 115.404 135.755 115.788C136.306 116.173 136.725 116.717 136.956 117.348L157.352 172.974C157.456 173.257 157.49 173.561 157.451 173.86C157.412 174.159 157.302 174.444 157.129 174.691C156.957 174.938 156.727 175.14 156.46 175.28C156.192 175.419 155.895 175.492 155.594 175.492Z" fill="#0879F4"/>
<path d="M80.5041 16.5267L8.52942 22.8236C7.11871 22.9471 6.07515 24.1907 6.19857 25.6014L10.5569 75.4178C10.6804 76.8285 11.924 77.8721 13.3347 77.7487L85.3094 71.4517C86.7201 71.3283 87.7636 70.0846 87.6402 68.6739L83.2819 18.8575C83.1584 17.4468 81.9148 16.4033 80.5041 16.5267Z" fill="#00BE50"/>
<path d="M148.076 10.6148L125.918 12.5534C110.751 13.8803 99.531 27.2514 100.858 42.4185L100.858 42.4186C102.185 57.5857 115.556 68.8054 130.723 67.4784L152.881 65.5398C168.049 64.2129 179.268 50.8418 177.941 35.6746C176.614 20.5075 163.243 9.28785 148.076 10.6148Z" fill="#00BE50"/>
<path d="M12.6902 86.5217C12.2224 86.5211 11.7728 86.34 11.4351 86.0162C11.0975 85.6923 10.8978 85.2507 10.8777 84.7833C10.8575 84.3159 11.0185 83.8587 11.3271 83.5071C11.6357 83.1554 12.0681 82.9364 12.5341 82.8956L179.472 68.2906C179.952 68.2487 180.429 68.3992 180.798 68.7089C181.167 69.0186 181.397 69.4622 181.439 69.942C181.481 70.4219 181.331 70.8988 181.021 71.2678C180.712 71.6368 180.268 71.8678 179.788 71.9099L12.8507 86.5149C12.7968 86.5195 12.7433 86.5217 12.6902 86.5217Z" fill="#CCD6E2"/>
<path d="M93.459 110.621C93.2204 110.621 92.9843 110.574 92.7639 110.482C92.5435 110.391 92.3433 110.257 92.1746 110.089C92.0059 109.92 91.8721 109.72 91.7808 109.499C91.6896 109.279 91.6426 109.043 91.6426 108.804V77.5205C91.6426 77.0388 91.8339 76.5768 92.1746 76.2361C92.5152 75.8955 92.9772 75.7041 93.459 75.7041C93.9407 75.7041 94.4027 75.8955 94.7434 76.2361C95.084 76.5768 95.2754 77.0388 95.2754 77.5205V108.804C95.2754 109.043 95.2284 109.279 95.1371 109.499C95.0458 109.72 94.9121 109.92 94.7434 110.089C94.5747 110.257 94.3745 110.391 94.1541 110.482C93.9337 110.574 93.6975 110.621 93.459 110.621Z" fill="#CCD6E2"/>
<path d="M73.8127 145.261C74.0268 145.544 74.1382 145.891 74.1286 146.246C74.1375 146.509 74.0769 146.77 73.9529 147.003C73.829 147.235 73.6459 147.431 73.4223 147.571C72.8001 147.921 72.0898 148.084 71.377 148.04H67.7146V141.533H71.1911C71.8783 141.487 72.5634 141.649 73.1573 141.998C73.3643 142.13 73.534 142.313 73.6504 142.529C73.7667 142.746 73.8258 142.988 73.8219 143.234C73.8261 143.523 73.747 143.807 73.5942 144.052C73.4283 144.306 73.195 144.509 72.9203 144.638C73.2708 144.757 73.5803 144.973 73.8127 145.261ZM69.8712 143.067V144.034H70.8937C71.3708 144.034 71.6095 143.872 71.6096 143.55C71.6096 143.228 71.3709 143.067 70.8937 143.067H69.8712ZM71.9163 145.995C71.9163 145.654 71.6746 145.484 71.1911 145.483H69.8712V146.506H71.1911C71.6745 146.506 71.9162 146.336 71.9163 145.995H71.9163Z" fill="white"/>
<path d="M79.892 146.906H77.4193L76.9824 148.04H74.7515L77.596 141.533H79.7526L82.5971 148.04H80.3289L79.892 146.906ZM79.2879 145.326L78.6557 143.689L78.0237 145.326H79.2879Z" fill="white"/>
<path d="M83.5083 141.533H85.7022V146.339H88.6395V148.04H83.5083V141.533Z" fill="white"/>
<path d="M94.3283 146.906H91.8556L91.4187 148.04H89.1877L92.0323 141.533H94.1889L97.0334 148.04H94.7652L94.3283 146.906ZM93.7241 145.326L93.092 143.689L92.4599 145.326H93.7241Z" fill="white"/>
<path d="M104.358 141.533V148.04H102.555L100.082 145.084V148.04H97.9441V141.533H99.7475L102.22 144.489V141.533H104.358Z" fill="white"/>
<path d="M107.482 147.756C106.945 147.482 106.496 147.064 106.185 146.548C105.877 146.012 105.715 145.405 105.715 144.787C105.715 144.168 105.877 143.561 106.185 143.025C106.496 142.509 106.945 142.091 107.482 141.817C108.057 141.523 108.695 141.374 109.341 141.384C109.922 141.374 110.499 141.488 111.032 141.719C111.516 141.933 111.938 142.265 112.26 142.685L110.874 143.922C110.714 143.692 110.502 143.503 110.255 143.37C110.007 143.238 109.732 143.166 109.452 143.16C109.247 143.151 109.042 143.186 108.852 143.262C108.661 143.338 108.489 143.454 108.346 143.601C108.075 143.937 107.928 144.355 107.928 144.786C107.928 145.218 108.075 145.636 108.346 145.972C108.489 146.119 108.661 146.235 108.852 146.311C109.042 146.387 109.247 146.422 109.452 146.413C109.733 146.408 110.008 146.335 110.255 146.203C110.502 146.07 110.714 145.881 110.874 145.651L112.26 146.887C111.938 147.308 111.516 147.64 111.032 147.854C110.499 148.085 109.922 148.199 109.341 148.189C108.695 148.199 108.057 148.05 107.482 147.756Z" fill="white"/>
<path d="M118.859 146.385V148.04H113.449V141.533H118.738V143.187H115.606V143.95H118.357V145.53H115.606V146.385L118.859 146.385Z" fill="white"/>
<path d="M17.9475 45.821L20.1331 45.6298L20.552 50.4173L23.4781 50.1612L23.6264 51.8559L18.5146 52.3033L17.9475 45.821Z" fill="white"/>
<path d="M29.1946 50.2303L26.7313 50.4457L26.395 51.6136L24.1724 51.808L26.439 45.078L28.5874 44.89L31.9882 51.1243L29.7287 51.3219L29.1946 50.2303ZM28.4551 48.7087L27.6826 47.1336L27.1957 48.8191L28.4551 48.7087Z" fill="white"/>
<path d="M38.8851 43.989L36.7112 50.7111L34.5628 50.8992L31.2544 44.6567L33.6065 44.4509L35.4845 48.1032L36.7366 44.177L38.8851 43.989Z" fill="white"/>
<path d="M45.466 48.2841L45.6103 49.9324L40.2206 50.4042L39.6536 43.9219L44.9227 43.4607L45.067 45.1089L41.9463 45.3821L42.0128 46.1417L44.7539 45.9018L44.8915 47.4759L42.1504 47.7158L42.2249 48.5679L45.466 48.2841Z" fill="white"/>
<path d="M49.6441 47.9371L49.0516 47.9889L49.1942 49.6191L47.0085 49.8103L46.4414 43.328L49.5619 43.0548C50.0976 42.9959 50.6397 43.0502 51.1531 43.2141C51.4663 43.3271 51.7527 43.504 51.994 43.7334C52.2354 43.9629 52.4264 44.24 52.5551 44.5472C52.6837 44.8544 52.7471 45.1849 52.7413 45.5179C52.7355 45.8509 52.6607 46.179 52.5214 46.4815C52.3332 46.8551 52.0437 47.1682 51.6859 47.3851L53.2222 49.2664L50.8886 49.4708L49.6441 47.9371ZM50.2548 44.8932C50.0519 44.7633 49.8082 44.713 49.5704 44.752L48.7743 44.8219L48.9072 46.3407L49.7033 46.2708C49.9441 46.2682 50.1754 46.1766 50.3527 46.0136C50.4822 45.8495 50.5442 45.6422 50.526 45.434C50.5078 45.2258 50.4108 45.0323 50.2548 44.8932V44.8932Z" fill="white"/>
<path d="M58.781 47.6417L56.3177 47.857L55.9814 49.0253L53.7588 49.2197L56.0254 42.4894L58.1739 42.3014L61.5747 48.5357L59.3151 48.7337L58.781 47.6417ZM58.0415 46.1201L57.269 44.5453L56.7821 46.2304L58.0415 46.1201Z" fill="white"/>
<path d="M66.3782 44.6723L68.2766 44.5063L68.5164 47.2472C68.1333 47.5596 67.7007 47.8056 67.2364 47.9752C66.7636 48.1563 66.2682 48.2717 65.7641 48.3182C65.1188 48.3856 64.4668 48.2937 63.8652 48.0507C63.307 47.8245 62.823 47.4468 62.468 46.9602C62.1149 46.4528 61.9008 45.8619 61.847 45.2462C61.7931 44.6305 61.9013 44.0114 62.1609 43.4505C62.4284 42.9065 62.8446 42.4496 63.3613 42.1325C63.9229 41.787 64.5597 41.5823 65.2174 41.5358C65.8018 41.4749 66.3925 41.5327 66.954 41.7057C67.4602 41.8651 67.9191 42.1471 68.29 42.5267L66.9994 43.8804C66.8072 43.6747 66.571 43.5152 66.3084 43.4137C66.0458 43.3123 65.7637 43.2716 65.4831 43.2947C65.2712 43.3028 65.0632 43.3545 64.8722 43.4467C64.6812 43.5389 64.5112 43.6695 64.3731 43.8304C64.2405 44.0024 64.1436 44.1993 64.0883 44.4093C64.0329 44.6193 64.0202 44.8383 64.0508 45.0533C64.0683 45.4873 64.2567 45.8968 64.5749 46.1925C64.7336 46.329 64.9194 46.4303 65.12 46.4899C65.3206 46.5496 65.5316 46.5661 65.7391 46.5384C66.0124 46.5154 66.2784 46.4382 66.5215 46.3113L66.3782 44.6723Z" fill="white"/>
<path d="M75.3116 45.673L75.456 47.3213L70.0664 47.7928L69.4993 41.3105L74.7683 40.8496L74.9125 42.4979L71.7918 42.7707L71.8583 43.5302L74.5994 43.2904L74.7371 44.8645L71.9959 45.1043L72.0705 45.9565L75.3116 45.673Z" fill="white"/>
<path d="M124.241 36.8194C124.679 36.9619 125.064 37.2297 125.35 37.5896C125.636 37.9495 125.81 38.3856 125.85 38.8436C125.89 39.3015 125.795 39.7612 125.576 40.1653C125.356 40.5694 125.023 40.9002 124.617 41.1164C124.14 41.367 123.616 41.5145 123.078 41.5495L122.143 41.6311L122.282 43.224L120.097 43.4153L119.53 36.9329L122.65 36.6601C123.186 36.601 123.728 36.6553 124.241 36.8194ZM123.441 39.6189C123.571 39.4548 123.633 39.2475 123.614 39.0393C123.596 38.831 123.499 38.6376 123.343 38.4985C123.14 38.3686 122.897 38.3183 122.659 38.3573L121.863 38.4269L121.996 39.9456L122.792 39.8761C123.033 39.8735 123.264 39.7818 123.441 39.6189V39.6189Z" fill="white"/>
<path d="M130.076 40.8996L129.483 40.9514L129.626 42.5816L127.44 42.7728L126.873 36.2905L129.994 36.0177C130.529 35.9586 131.071 36.0128 131.585 36.177C131.898 36.2899 132.184 36.4668 132.426 36.6963C132.667 36.9257 132.858 37.2028 132.987 37.51C133.115 37.8172 133.179 38.1478 133.173 38.4808C133.167 38.8137 133.092 39.1419 132.953 39.4444C132.765 39.8179 132.475 40.131 132.118 40.348L133.654 42.2293L131.32 42.4333L130.076 40.8996ZM130.686 37.8561C130.484 37.7262 130.24 37.6759 130.002 37.7149L129.206 37.7844L129.339 39.3032L130.135 39.2336C130.376 39.231 130.607 39.1394 130.784 38.9764C130.914 38.8124 130.976 38.6051 130.958 38.3968C130.939 38.1886 130.842 37.9952 130.686 37.8561Z" fill="white"/>
<path d="M136.388 41.7007C135.821 41.4687 135.329 41.085 134.966 40.5918C134.602 40.0985 134.382 39.5146 134.328 38.9043C134.275 38.294 134.391 37.6807 134.663 37.1318C134.935 36.583 135.353 36.1197 135.871 35.7927C136.432 35.455 137.062 35.2498 137.713 35.1928C138.365 35.1358 139.021 35.2285 139.631 35.4639C140.198 35.6959 140.69 36.0796 141.053 36.5729C141.417 37.0662 141.637 37.65 141.691 38.2603C141.744 38.8705 141.628 39.4837 141.356 40.0326C141.084 40.5815 140.666 41.0448 140.148 41.3718C139.588 41.7093 138.958 41.9144 138.306 41.9714C137.655 42.0284 136.999 41.9358 136.388 41.7007ZM138.87 39.9389C139.081 39.7828 139.245 39.5715 139.344 39.3283C139.449 39.0497 139.489 38.7512 139.464 38.4547C139.438 38.1583 139.345 37.8714 139.194 37.6152C139.054 37.3932 138.856 37.2137 138.622 37.0962C138.387 36.9855 138.127 36.9391 137.868 36.9617C137.609 36.9843 137.361 37.0752 137.149 37.2249C136.938 37.3813 136.774 37.5925 136.675 37.8355C136.571 38.1141 136.53 38.4126 136.556 38.7091C136.582 39.0056 136.674 39.2925 136.825 39.5487C136.965 39.7711 137.163 39.9507 137.398 40.0677C137.633 40.1788 137.893 40.2255 138.151 40.2029C138.41 40.1802 138.658 40.0891 138.87 39.9389Z" fill="white"/>
<path d="M145.066 36.3597L145.163 37.4712L147.867 37.2346L148.011 38.8828L145.307 39.1195L145.489 41.1938L143.303 41.385L142.736 34.9027L148.005 34.4419L148.149 36.0901L145.066 36.3597Z" fill="white"/>
<path d="M149.255 34.3322L151.441 34.1414L152.008 40.6237L149.822 40.8145L149.255 34.3322Z" fill="white"/>
<path d="M154.608 35.5714L152.709 35.7374L152.561 34.0431L158.543 33.5198L158.691 35.2141L156.793 35.3802L157.212 40.1681L155.026 40.3593L154.608 35.5714Z" fill="white"/>
</svg>
