<svg width="188" height="188" viewBox="0 0 188 188" fill="none" xmlns="http://www.w3.org/2000/svg">
<path d="M35.991 177.258L24.6645 165.932C24.066 165.333 23.7297 164.522 23.7297 163.675C23.7297 162.829 24.066 162.017 24.6645 161.418L60.5616 125.521C60.858 125.225 61.2098 124.99 61.597 124.829C61.9842 124.669 62.3993 124.586 62.8184 124.586C63.2375 124.586 63.6525 124.669 64.0398 124.829C64.427 124.99 64.7788 125.225 65.0752 125.521L89.7333 150.179L140.649 99.2632C141.24 98.6721 141.942 98.2033 142.714 97.8834C143.486 97.5636 144.314 97.3989 145.15 97.3989C145.986 97.3989 146.813 97.5636 147.586 97.8834C148.358 98.2033 149.059 98.6721 149.65 99.2632L156.489 106.102C157.683 107.295 158.353 108.914 158.353 110.602C158.353 112.291 157.683 113.91 156.489 115.103L91.9901 179.602C91.3915 180.201 90.5798 180.537 89.7333 180.537C88.8868 180.537 88.075 180.201 87.4765 179.602L62.8184 154.944L40.5046 177.258C40.2082 177.555 39.8564 177.79 39.4692 177.95C39.0819 178.111 38.6669 178.193 38.2478 178.193C37.8287 178.193 37.4136 178.111 37.0264 177.95C36.6392 177.79 36.2873 177.555 35.991 177.258Z" fill="#00BE50"/>
<path d="M161.079 142.728H145.061C144.214 142.728 143.403 142.392 142.804 141.793C142.206 141.194 141.869 140.383 141.869 139.536V120.248C141.869 118.56 141.199 116.941 140.005 115.747C138.811 114.554 137.192 113.883 135.504 113.883H116.216C115.37 113.883 114.558 113.547 113.959 112.948C113.361 112.35 113.024 111.538 113.024 110.691V94.6735C113.024 93.8271 113.361 93.0153 113.959 92.4167C114.558 91.8182 115.37 91.4819 116.216 91.4819H161.079C161.925 91.4819 162.737 91.8182 163.336 92.4167C163.934 93.0153 164.27 93.8271 164.27 94.6735V139.536C164.27 140.383 163.934 141.194 163.336 141.793C162.737 142.392 161.925 142.728 161.079 142.728Z" fill="#00BE50"/>
<path d="M55.1026 27.1643C52.7151 24.7769 49.5737 23.2913 46.2137 22.9604C42.8536 22.6295 39.4828 23.474 36.6755 25.3498C33.8683 27.2256 31.7983 30.0168 30.8183 33.2477C29.8382 36.4787 30.0088 39.9494 31.3009 43.0687C32.593 46.188 34.9267 48.7628 37.9043 50.3543C40.882 51.9459 44.3193 52.4557 47.6308 51.797C50.9422 51.1383 53.9228 49.3518 56.0646 46.7419C58.2065 44.132 59.3772 40.8601 59.3772 37.4838C59.3824 35.5665 59.0073 33.6672 58.2736 31.8959C57.5398 30.1245 56.462 28.5163 55.1026 27.1643ZM44.783 51.573C41.9964 51.573 39.2725 50.7466 36.9555 49.1985C34.6386 47.6503 32.8328 45.4499 31.7664 42.8755C30.7001 40.301 30.4211 37.4682 30.9647 34.7352C31.5083 32.0022 32.8502 29.4917 34.8206 27.5213C36.791 25.5509 39.3014 24.2091 42.0344 23.6655C44.7675 23.1218 47.6003 23.4008 50.1747 24.4672C52.7492 25.5336 54.9496 27.3394 56.4977 29.6563C58.0459 31.9733 58.8722 34.6973 58.8722 37.4838C58.8845 39.3375 58.5285 41.1751 57.8248 42.89C57.1211 44.605 56.0837 46.163 54.773 47.4738C53.4622 48.7845 51.9041 49.8219 50.1892 50.5256C48.4743 51.2293 46.6366 51.5853 44.783 51.573V51.573Z" fill="#0879F4"/>
<path d="M36.7092 37.4837H44.7829V29.4099C42.6416 29.41 40.5881 30.2606 39.074 31.7747C37.5599 33.2888 36.7092 35.3424 36.7092 37.4837Z" fill="#0879F4"/>
<path d="M44.783 45.5573C46.9242 45.5573 48.9778 44.7067 50.4919 43.1926C52.006 41.6785 52.8566 39.6249 52.8566 37.4836H44.783V45.5573Z" fill="#0879F4"/>
<path d="M44.783 23.9751C42.1112 23.9751 39.4995 24.7674 37.278 26.2517C35.0566 27.736 33.3251 29.8458 32.3027 32.3141C31.2803 34.7825 31.0128 37.4986 31.534 40.119C32.0552 42.7394 33.3418 45.1464 35.231 47.0356C37.1202 48.9248 39.5272 50.2114 42.1476 50.7326C44.768 51.2538 47.4841 50.9863 49.9525 49.9639C52.4208 48.9415 54.5306 47.21 56.0149 44.9886C57.4992 42.7671 58.2915 40.1554 58.2915 37.4836C58.2915 33.9009 56.8682 30.465 54.3349 27.9317C51.8016 25.3984 48.3657 23.9751 44.783 23.9751ZM42.8088 24.7126H43.8783L44.8462 27.2451L45.8139 24.7126H46.8835V28.2682H46.1716V25.7855L45.235 28.2682H44.4574L43.5206 25.7855V28.2682H42.8088L42.8088 24.7126ZM33.8416 30.5619L35.5766 28.4943C35.9357 28.0663 36.4378 27.7245 36.9149 28.1249C37.0838 28.2529 37.2175 28.4217 37.3035 28.6154C37.3632 28.7876 37.3615 28.9752 37.2987 29.1463C37.472 29.0291 37.6806 28.9755 37.8889 28.9945C38.0973 29.0136 38.2927 29.1041 38.4419 29.2508C38.8814 29.6779 38.8168 30.1718 38.3987 30.67L36.569 32.8505L33.8416 30.5619ZM44.783 46.1123C43.0764 46.1123 41.4081 45.6063 39.9891 44.6581C38.5701 43.71 37.4642 42.3623 36.8111 40.7856C36.158 39.2089 35.9871 37.474 36.3201 35.8002C36.653 34.1264 37.4748 32.5889 38.6816 31.3821C39.8883 30.1754 41.4258 29.3536 43.0997 29.0206C44.7735 28.6877 46.5084 28.8586 48.0851 29.5117C49.6618 30.1648 51.0094 31.2707 51.9576 32.6897C52.9057 34.1087 53.4118 35.777 53.4118 37.4836C53.4117 39.7721 52.5026 41.9668 50.8844 43.585C49.2662 45.2032 47.0715 46.1123 44.783 46.1123H44.783ZM52.8232 32.9232L52.1775 32.1195L53.4639 30.2387L53.4563 30.2292L51.349 31.0963L50.697 30.2976L52.9277 27.4284L53.4779 28.1077L52.081 29.935L54.2156 29.0186L54.8059 29.7474L53.4657 31.6449L55.5435 30.6585L56.0936 31.3379L52.8232 32.9232Z" fill="#0879F4"/>
<path d="M36.5248 29.0154C36.4479 28.9438 36.3471 28.9031 36.242 28.9014C36.1369 28.8997 36.0349 28.9371 35.9557 29.0062L34.9136 30.2481L35.5582 30.7891L36.5886 29.5612C36.6222 29.522 36.6473 29.4763 36.6623 29.4269C36.6774 29.3776 36.682 29.3256 36.6761 29.2744C36.6701 29.2231 36.6535 29.1736 36.6275 29.1291C36.6015 29.0845 36.5665 29.0458 36.5248 29.0154Z" fill="#0879F4"/>
<path d="M37.7887 30.4548C37.8548 30.3644 37.8846 30.2524 37.872 30.1411C37.8594 30.0298 37.8054 29.9273 37.7207 29.854C37.636 29.7807 37.5269 29.7419 37.4149 29.7453C37.3029 29.7488 37.1964 29.7942 37.1164 29.8726L36.0212 31.1777L36.7024 31.7493L37.7887 30.4548Z" fill="#0879F4"/>
<path fill-rule="evenodd" clip-rule="evenodd" d="M30.0076 94.468C30.0342 87.2236 33.7763 68.9659 38.7967 68.9793C43.2181 69.0059 44.9228 81.5772 44.9228 81.5772C44.9891 81.6571 46.5738 69.0192 50.9153 69.0325C56.628 69.0591 59.5979 86.9705 59.5579 94.5213L56.5885 94.5082C56.6548 79.3399 53.1126 70.8703 50.9816 70.8703C49.2241 70.857 46.8402 78.2345 46.7734 92.8566L43.3512 92.9233C43.4044 78.2212 40.6209 70.8168 38.7967 70.8168C36.9589 70.8037 33.3499 79.7792 33.2834 94.4013L30.0076 94.468H30.0076Z" fill="#0879F4"/>
<path d="M123.402 56.1414H137.122C137.369 56.1414 137.607 56.2397 137.782 56.4148C137.957 56.5899 138.055 56.8273 138.055 57.0749V69.3108C138.055 69.5583 137.957 69.7956 137.782 69.9706C137.607 70.1456 137.37 70.2439 137.122 70.2439H123.402C123.28 70.2439 123.158 70.2197 123.045 70.1728C122.932 70.1259 122.829 70.0572 122.743 69.9706C122.656 69.8839 122.587 69.7811 122.54 69.6679C122.493 69.5547 122.469 69.4333 122.469 69.3108V57.0744C122.469 56.9519 122.493 56.8306 122.54 56.7174C122.587 56.6041 122.656 56.5013 122.743 56.4146C122.829 56.328 122.932 56.2593 123.045 56.2124C123.158 56.1655 123.28 56.1414 123.402 56.1414Z" fill="#0879F4"/>
<path d="M138.07 56.1414H122.455V62.5689H138.07V56.1414Z" fill="#0879F4"/>
<path d="M142.224 64.7338C142.224 64.9518 142.181 65.1678 142.098 65.3693C142.014 65.5708 141.892 65.7539 141.738 65.9081C141.583 66.0623 141.4 66.1846 141.199 66.268C140.997 66.3515 140.781 66.3944 140.563 66.3944C140.123 66.3944 139.7 66.2194 139.389 65.908C139.078 65.5966 138.903 65.1742 138.903 64.7338V57.2709C138.903 56.8304 139.078 56.408 139.389 56.0966C139.7 55.7851 140.123 55.6101 140.563 55.6101C140.781 55.6101 140.997 55.653 141.199 55.7365C141.4 55.8199 141.583 55.9423 141.738 56.0965C141.892 56.2507 142.014 56.4338 142.098 56.6353C142.181 56.8368 142.224 57.0528 142.224 57.2709V64.7338Z" fill="#0879F4"/>
<path d="M121.622 64.7338C121.622 64.9519 121.579 65.1678 121.496 65.3693C121.412 65.5708 121.29 65.7539 121.136 65.9081C120.982 66.0623 120.798 66.1846 120.597 66.268C120.395 66.3515 120.18 66.3944 119.961 66.3944C119.521 66.3944 119.099 66.2194 118.787 65.908C118.476 65.5966 118.301 65.1742 118.301 64.7338V57.2709C118.301 56.8304 118.476 56.408 118.787 56.0966C119.099 55.7851 119.521 55.6101 119.961 55.6101C120.18 55.6101 120.395 55.653 120.597 55.7365C120.799 55.8199 120.982 55.9423 121.136 56.0965C121.29 56.2507 121.412 56.4338 121.496 56.6353C121.579 56.8368 121.622 57.0528 121.622 57.2709V64.7338Z" fill="#0879F4"/>
<path d="M130.262 48.6365C122.692 48.6132 122.519 55.2219 122.519 55.2219H138.005C138.005 55.2219 137.762 48.6596 130.262 48.6365ZM126.864 52.7806C126.679 52.7806 126.499 52.726 126.346 52.6235C126.193 52.5211 126.073 52.3755 126.003 52.2052C125.932 52.0349 125.914 51.8475 125.95 51.6666C125.986 51.4858 126.074 51.3197 126.205 51.1893C126.335 51.059 126.501 50.9702 126.682 50.9342C126.863 50.8983 127.05 50.9167 127.221 50.9873C127.391 51.0578 127.536 51.1773 127.639 51.3306C127.741 51.4839 127.796 51.6641 127.796 51.8485C127.796 51.9709 127.772 52.0921 127.725 52.2052C127.678 52.3183 127.61 52.4211 127.523 52.5076C127.436 52.5942 127.334 52.6628 127.221 52.7097C127.107 52.7565 126.986 52.7806 126.864 52.7806ZM133.661 52.7806C133.476 52.7806 133.296 52.726 133.143 52.6235C132.99 52.5211 132.87 52.3755 132.8 52.2052C132.729 52.0349 132.711 51.8475 132.747 51.6666C132.783 51.4858 132.871 51.3197 133.002 51.1893C133.132 51.059 133.298 50.9702 133.479 50.9342C133.66 50.8983 133.847 50.9167 134.018 50.9873C134.188 51.0578 134.333 51.1773 134.436 51.3306C134.538 51.4839 134.593 51.6641 134.593 51.8485C134.593 51.9709 134.569 52.0921 134.522 52.2052C134.475 52.3183 134.407 52.4211 134.32 52.5076C134.233 52.5942 134.131 52.6628 134.018 52.7097C133.904 52.7565 133.783 52.7806 133.661 52.7806Z" fill="#0879F4"/>
<path d="M126.607 49.525C126.635 49.5638 126.719 49.5515 126.796 49.4967C126.873 49.4427 126.913 49.3668 126.885 49.3281L125.439 47.2866C125.411 47.2475 125.326 47.2604 125.25 47.3144C125.173 47.369 125.133 47.4444 125.161 47.4835L126.607 49.525Z" fill="#0879F4"/>
<path d="M133.917 49.525C133.89 49.5638 133.805 49.5515 133.728 49.4967C133.652 49.4427 133.612 49.3668 133.639 49.3281L135.085 47.2866C135.113 47.2475 135.198 47.2604 135.274 47.3144C135.351 47.369 135.391 47.4444 135.363 47.4835L133.917 49.525Z" fill="#0879F4"/>
<path d="M135.128 74.3926C135.128 74.6107 135.085 74.8266 135.001 75.0281C134.918 75.2296 134.796 75.4127 134.641 75.5669C134.487 75.7211 134.304 75.8434 134.103 75.9268C133.901 76.0103 133.685 76.0532 133.467 76.0532C133.027 76.0532 132.604 75.8782 132.293 75.5668C131.981 75.2554 131.806 74.833 131.806 74.3926V66.9294C131.806 66.489 131.981 66.0666 132.293 65.7552C132.604 65.4438 133.027 65.2688 133.467 65.2688C133.685 65.2688 133.901 65.3117 134.103 65.3952C134.304 65.4786 134.487 65.6009 134.641 65.7551C134.796 65.9093 134.918 66.0924 135.001 66.2939C135.085 66.4954 135.128 66.7113 135.128 66.9294V74.3926Z" fill="#0879F4"/>
<path d="M128.718 74.3926C128.718 74.833 128.543 75.2554 128.232 75.5668C127.92 75.8782 127.498 76.0532 127.058 76.0532C126.617 76.0532 126.195 75.8782 125.883 75.5668C125.572 75.2554 125.397 74.833 125.397 74.3926V66.9294C125.397 66.489 125.572 66.0666 125.883 65.7552C126.195 65.4438 126.617 65.2688 127.058 65.2688C127.498 65.2688 127.92 65.4438 128.232 65.7552C128.543 66.0666 128.718 66.489 128.718 66.9294V74.3926Z" fill="#0879F4"/>
<path d="M141.986 9.60361C140.625 7.79322 138.864 6.32122 136.841 5.30207C134.819 4.28293 132.588 3.74411 130.323 3.72754C128.052 3.73408 125.812 4.25708 123.772 5.25697C121.733 6.25687 119.947 7.70747 118.551 9.49905C116.456 12.4197 115.043 15.5046 115.805 21.1716C117.437 22.3707 118.8 23.4007 120.556 24.6445L121.233 30.038H128.318C128.891 30.486 129.596 30.7342 130.323 30.7445C131.05 30.7494 131.756 30.4994 132.318 30.038H139.463L140.135 24.6445L144.633 21.3358C145.056 19.3047 145.039 17.2064 144.582 15.1825C144.126 13.1585 143.24 11.2561 141.986 9.60361ZM142.279 19.7636L137.398 23.4007L136.856 27.4706H131.453C131.349 27.6835 131.189 27.8637 130.99 27.9918C130.79 28.1199 130.56 28.1909 130.323 28.1971C129.681 28.1672 129.557 27.9284 129.169 27.4706L123.746 27.4308L123.228 23.3708L118.297 19.7138C118.084 18.9607 118.008 18.1753 118.073 17.3952C118.102 16.7865 118.265 16.1917 118.551 15.6538C121.069 18.1117 124.208 21.2712 126.746 23.7191C124.303 20.7686 121.407 17.2161 118.984 14.2607C119.047 13.5724 119.261 12.9065 119.611 12.3103C119.913 11.7791 120.316 11.3111 120.795 10.932C123.009 14.5642 125.696 19.3705 127.9 23.0275C125.995 19.0123 123.721 13.8576 121.825 9.81257C122.131 9.30812 122.529 8.86587 122.999 8.50898C123.488 8.10398 124.064 7.81634 124.681 7.66813C125.995 12.2555 127.761 18.0371 129.069 22.6344C128.109 17.8978 126.97 11.8227 125.995 7.04121C126.506 6.75537 127.051 6.53312 127.617 6.3794C128.249 6.2578 128.898 6.25277 129.532 6.36455C129.846 11.34 129.95 17.5395 130.323 22.5648C130.701 17.5594 130.716 11.3799 131.089 6.36455C131.733 6.27388 132.388 6.29577 133.025 6.42922C133.576 6.56289 134.099 6.79554 134.567 7.11586C133.637 11.8774 132.483 17.9127 131.552 22.6494C132.886 18.0819 134.567 12.2555 135.941 7.68306C136.563 7.85457 137.145 8.14893 137.652 8.54879C138.103 8.91802 138.488 9.36038 138.791 9.85735C136.871 13.8577 134.642 19.0123 132.692 23.0424C134.896 19.4153 137.607 14.5642 139.841 10.9469C140.291 11.3494 140.675 11.8195 140.981 12.3401C141.333 12.9333 141.562 13.5917 141.652 14.2756C139.199 17.2559 136.329 20.8234 133.876 23.749C136.398 21.301 139.543 18.1366 142.07 15.6986C142.332 16.2445 142.486 16.8358 142.523 17.44C142.579 18.2229 142.496 19.0094 142.279 19.7636H142.279Z" fill="#0879F4"/>
<path fill-rule="evenodd" clip-rule="evenodd" d="M75.5548 25.6465C73.855 28.7557 72.3794 32.4801 72.8669 34.933C72.9357 35.3766 73.1043 35.7987 73.3602 36.1675C73.616 36.5364 73.9523 36.8422 74.3437 37.062C75.4046 37.6601 76.6498 37.8429 77.8378 37.5748C79.4649 37.2386 80.9438 36.2466 82.1033 35.4775C84.0564 34.1827 105.476 19.0612 105.476 19.0612C105.679 18.9002 105.607 18.7672 105.337 18.8973C105.229 18.9498 81.1485 31.1722 81.1485 31.1722C80.6935 31.4094 80.2089 31.5848 79.7075 31.6936C77.7487 32.1131 75.7772 31.3874 75.3142 29.0905C75.1324 27.9391 75.2146 26.7614 75.5548 25.6465H75.5548Z" fill="#0879F4"/>
<path d="M87.3667 55.113C83.4031 55.113 82.9061 55.1298 81.3495 55.2009C80.1388 55.2251 78.9409 55.4545 77.8069 55.8792C76.8374 56.2542 75.957 56.8275 75.2219 57.5625C74.4869 58.2975 73.9136 59.178 73.5386 60.1475C73.1139 61.2815 72.8845 62.4793 72.8603 63.6901C72.7892 65.2467 72.7725 65.7437 72.7725 69.7072C72.7725 73.6708 72.7892 74.1678 72.8603 75.7244C72.8845 76.9351 73.1139 78.1329 73.5386 79.267C73.9136 80.2365 74.4869 81.1169 75.2219 81.8519C75.9569 82.5869 76.8374 83.1603 77.8069 83.5353C78.9409 83.96 80.1388 84.1893 81.3495 84.2136C82.9061 84.2846 83.4031 84.3014 87.3667 84.3014C91.3302 84.3014 91.8272 84.2846 93.3838 84.2136C94.5945 84.1893 95.7924 83.96 96.9264 83.5353C97.8959 83.1603 98.7763 82.587 99.5114 81.8519C100.246 81.1169 100.82 80.2365 101.195 79.267C101.619 78.1329 101.849 76.9351 101.873 75.7244C101.944 74.1678 101.961 73.6708 101.961 69.7073C101.961 65.7437 101.944 65.2467 101.873 63.6901C101.849 62.4793 101.619 61.2815 101.195 60.1475C100.82 59.178 100.246 58.2975 99.5113 57.5625C98.7763 56.8275 97.8959 56.2542 96.9264 55.8792C95.7924 55.4545 94.5945 55.2251 93.3838 55.2008C91.8272 55.1298 91.3302 55.113 87.3667 55.113V55.113ZM87.3667 57.7426C91.2635 57.7426 91.7251 57.7575 93.2639 57.8277C94.1894 57.8387 95.106 58.0087 95.9739 58.3302C96.6033 58.573 97.1749 58.9449 97.6519 59.4219C98.129 59.899 98.5009 60.4706 98.7436 61.1C99.0652 61.9678 99.2352 62.8845 99.2461 63.8099C99.3164 65.3488 99.3313 65.8104 99.3313 69.7073C99.3313 73.604 99.3164 74.0656 99.2461 75.6045C99.2352 76.53 99.0652 77.4466 98.7436 78.3145C98.5008 78.9439 98.129 79.5155 97.6519 79.9925C97.1749 80.4695 96.6033 80.8414 95.9739 81.0842C95.106 81.4058 94.1894 81.5758 93.2639 81.5867C91.7253 81.6569 91.2637 81.6718 87.3667 81.6718C83.4695 81.6718 83.0081 81.6569 81.4693 81.5867C80.5439 81.5758 79.6272 81.4058 78.7594 81.0842C78.13 80.8414 77.5584 80.4695 77.0814 79.9925C76.6043 79.5155 76.2324 78.9439 75.9896 78.3145C75.6681 77.4466 75.4981 76.53 75.4871 75.6045C75.4169 74.0656 75.402 73.604 75.402 69.7073C75.402 65.8104 75.4169 65.3488 75.4871 63.8099C75.4981 62.8845 75.6681 61.9678 75.9896 61.1C76.2324 60.4706 76.6043 59.899 77.0813 59.4219C77.5584 58.9449 78.13 58.573 78.7594 58.3302C79.6272 58.0087 80.5439 57.8387 81.4693 57.8277C83.0082 57.7575 83.4698 57.7426 87.3667 57.7426Z" fill="#0879F4"/>
<path d="M87.3666 74.5719C86.4045 74.5719 85.4639 74.2866 84.6639 73.7521C83.8639 73.2175 83.2404 72.4578 82.8722 71.5689C82.504 70.6799 82.4076 69.7018 82.5953 68.7581C82.783 67.8145 83.2464 66.9477 83.9267 66.2673C84.6071 65.587 85.4739 65.1236 86.4175 64.9359C87.3612 64.7482 88.3394 64.8446 89.2283 65.2128C90.1172 65.581 90.877 66.2045 91.4115 67.0045C91.946 67.8045 92.2313 68.7451 92.2313 69.7072C92.2313 70.9974 91.7188 72.2348 90.8065 73.1471C89.8942 74.0594 88.6568 74.5719 87.3666 74.5719ZM87.3666 62.2129C85.8844 62.2129 84.4355 62.6524 83.203 63.4759C81.9706 64.2994 81.01 65.4698 80.4428 66.8392C79.8756 68.2086 79.7271 69.7155 80.0163 71.1692C80.3055 72.623 81.0192 73.9583 82.0673 75.0064C83.1154 76.0545 84.4508 76.7683 85.9045 77.0575C87.3583 77.3467 88.8651 77.1982 90.2345 76.631C91.6039 76.0638 92.7744 75.1033 93.5979 73.8708C94.4214 72.6384 94.8609 71.1895 94.8609 69.7072C94.8609 68.7231 94.6671 67.7485 94.2905 66.8393C93.9138 65.93 93.3618 65.1038 92.6659 64.4079C91.97 63.712 91.1438 63.16 90.2346 62.7834C89.3253 62.4067 88.3508 62.2129 87.3666 62.2129Z" fill="#0879F4"/>
<path d="M96.9084 61.9169C96.9084 62.2632 96.8057 62.6018 96.6132 62.8898C96.4208 63.1778 96.1473 63.4023 95.8273 63.5348C95.5073 63.6674 95.1551 63.7021 94.8154 63.6345C94.4757 63.5669 94.1636 63.4001 93.9187 63.1552C93.6738 62.9103 93.507 62.5982 93.4394 62.2585C93.3718 61.9188 93.4065 61.5667 93.5391 61.2467C93.6716 60.9266 93.8961 60.6531 94.1841 60.4607C94.4721 60.2683 94.8107 60.1655 95.157 60.1655C95.387 60.1655 95.6148 60.2108 95.8273 60.2988C96.0397 60.3868 96.2328 60.5158 96.3954 60.6785C96.5581 60.8411 96.6871 61.0342 96.7751 61.2466C96.8631 61.4591 96.9084 61.6869 96.9084 61.9169Z" fill="#0879F4"/>
</svg>
