<svg xmlns="http://www.w3.org/2000/svg" viewBox="0 0 64 64" id="Regulation"><path d="M25 22c2.206 0 4-1.794 4-4a.987.987 0 0 0-.07-.349l.007-.003L26.443 11h2.741A2.997 2.997 0 0 0 31 12.816V25h-3a1 1 0 0 0-1 1v3a1 1 0 0 0 1 1h8a1 1 0 0 0 1-1v-3a1 1 0 0 0-1-1h-3V12.816A2.997 2.997 0 0 0 34.816 11h2.741l-2.493 6.648.007.003A.966.966 0 0 0 35 18c0 2.206 1.794 4 4 4s4-1.794 4-4a.987.987 0 0 0-.07-.349l.007-.003-3-8A1.002 1.002 0 0 0 39 9h-4.184A2.997 2.997 0 0 0 33 7.184V6h-2v1.184A2.997 2.997 0 0 0 29.184 9H25c-.417 0-.79.259-.937.648l-3 8 .007.003A.987.987 0 0 0 21 18c0 2.206 1.794 4 4 4zm10 6h-6v-1h6v1zm-10-8a1.998 1.998 0 0 1-1.731-1h3.463c-.347.598-.993 1-1.732 1zm-1.557-3L25 12.848 26.557 17h-3.114zM39 20a1.998 1.998 0 0 1-1.731-1h3.463c-.347.598-.993 1-1.732 1zm1.557-3h-3.113L39 12.848 40.557 17zM32 9a1.001 1.001 0 1 1-1 1c0-.552.449-1 1-1z" fill="#34a853" class="color000000 svgShape"></path><path d="M32 34c8.822 0 16-7.178 16-16S40.822 2 32 2 16 9.178 16 18s7.178 16 16 16zm0-30c7.72 0 14 6.28 14 14s-6.28 14-14 14-14-6.28-14-14S24.28 4 32 4zm24.625 25.219A1 1 0 0 0 55 30v1H45a1 1 0 0 0-1 1v4a1 1 0 0 0 1 1h10v1a.999.999 0 0 0 1.625.781l5-4a1 1 0 0 0 0-1.562l-5-4zm.372 6.703A1 1 0 0 0 56 35H46v-2h10a1 1 0 0 0 .997-.922L59.399 34l-2.402 1.922zM13 38a.999.999 0 0 0 1.625.781l5-4a1 1 0 0 0 0-1.562l-5-4A1 1 0 0 0 13 30v1H3a1 1 0 0 0-1 1v4a1 1 0 0 0 1 1h10v1zm-9-3v-2h10a1 1 0 0 0 .997-.922L17.399 34l-2.402 1.922A1 1 0 0 0 14 35H4zm31.71 15.321A4.964 4.964 0 0 0 37 47a4.996 4.996 0 0 0-5-5c-2.665 0-4.858 2.086-4.988 4.697A3.07 3.07 0 0 0 27 47c0 1.279.497 2.435 1.29 3.321C26.377 51.023 25 52.846 25 55v6a1 1 0 0 0 1 1h12a1 1 0 0 0 1-1v-6c0-2.154-1.377-3.977-3.29-4.679zM32 50a2.995 2.995 0 0 1-2.841-2.08c1.678-1.147 4.003-1.147 5.681 0A2.992 2.992 0 0 1 32 50zm0-6c1.095 0 2.047.595 2.571 1.496A6.955 6.955 0 0 0 32 45c-.892 0-1.767.175-2.583.501A2.985 2.985 0 0 1 32 44zm5 16H27v-5c0-1.654 1.346-3 3-3h4c1.654 0 3 1.346 3 3v5zm14.71-9.679A4.964 4.964 0 0 0 53 47a4.996 4.996 0 0 0-5-5c-2.665 0-4.858 2.086-4.988 4.697A3.07 3.07 0 0 0 43 47c0 1.279.497 2.435 1.29 3.321C42.377 51.023 41 52.846 41 55v6a1 1 0 0 0 1 1h12a1 1 0 0 0 1-1v-6c0-2.154-1.377-3.977-3.29-4.679zM48 50a2.995 2.995 0 0 1-2.841-2.08c1.678-1.147 4.003-1.147 5.681 0A2.992 2.992 0 0 1 48 50zm0-6c1.095 0 2.047.595 2.571 1.496A6.955 6.955 0 0 0 48 45c-.892 0-1.767.175-2.583.501A2.985 2.985 0 0 1 48 44zm5 16H43v-5c0-1.654 1.346-3 3-3h4c1.654 0 3 1.346 3 3v5zm-33.29-9.679A4.964 4.964 0 0 0 21 47a4.996 4.996 0 0 0-5-5c-2.665 0-4.858 2.086-4.988 4.697A3.07 3.07 0 0 0 11 47c0 1.279.497 2.435 1.29 3.321C10.377 51.023 9 52.846 9 55v6a1 1 0 0 0 1 1h12a1 1 0 0 0 1-1v-6c0-2.154-1.377-3.977-3.29-4.679zM16 50a2.995 2.995 0 0 1-2.841-2.08c1.678-1.147 4.003-1.147 5.681 0A2.992 2.992 0 0 1 16 50zm0-6c1.095 0 2.047.595 2.571 1.496A6.955 6.955 0 0 0 16 45c-.892 0-1.767.175-2.583.501A2.985 2.985 0 0 1 16 44zm5 16H11v-5c0-1.654 1.346-3 3-3h4c1.654 0 3 1.346 3 3v5z" fill="#34a853" class="color000000 svgShape"></path></svg>