<svg width="194" height="194" viewBox="0 0 194 194" fill="none" xmlns="http://www.w3.org/2000/svg">
<path d="M99.9341 176.374C54.6476 178.025 17.5725 141.6 17.5725 96.2838V75.7095C17.5725 75.7005 17.5761 75.692 17.5824 75.6856C17.5887 75.6793 17.5973 75.6758 17.6062 75.6758H32.6951C32.6995 75.6758 32.7039 75.6766 32.7079 75.6783C32.712 75.68 32.7157 75.6825 32.7189 75.6856C32.722 75.6888 32.7245 75.6925 32.7262 75.6966C32.7279 75.7007 32.7287 75.705 32.7287 75.7095V96.329C32.7287 132.787 62.7519 162.46 99.1895 161.234C108.048 160.945 116.75 158.821 124.746 154.996C132.742 151.172 139.856 145.729 145.641 139.013C145.933 138.676 146.346 138.466 146.791 138.428C147.236 138.39 147.678 138.528 148.023 138.812L157.087 146.249C157.264 146.395 157.41 146.574 157.517 146.777C157.624 146.98 157.689 147.202 157.708 147.431C157.728 147.659 157.702 147.889 157.632 148.108C157.561 148.326 157.448 148.528 157.299 148.702C150.175 157.035 141.397 163.798 131.522 168.562C121.648 173.325 110.891 175.986 99.9341 176.374Z" fill="#00BE50"/>
<path d="M176.394 118.324H161.305C161.296 118.324 161.287 118.321 161.281 118.314C161.275 118.308 161.271 118.3 161.271 118.291V97.671C161.271 61.2129 131.248 31.5404 94.8105 32.7656C85.9519 33.0546 77.2496 35.1787 69.2541 39.0036C61.2585 42.8285 54.1436 48.271 48.3595 54.9869C48.067 55.3244 47.6542 55.5344 47.2091 55.572C46.764 55.6096 46.3218 55.4719 45.9768 55.1881L36.9132 47.7509C36.7361 47.6053 36.5899 47.4257 36.4831 47.2228C36.3764 47.0198 36.3113 46.7976 36.2915 46.5692C36.2718 46.3407 36.2979 46.1106 36.3683 45.8924C36.4387 45.6742 36.552 45.4722 36.7015 45.2983C43.8255 36.9646 52.603 30.2017 62.4778 25.4382C72.3525 20.6747 83.1092 18.0144 94.0659 17.626C139.352 15.9747 176.428 52.3996 176.428 97.7162V118.291C176.428 118.3 176.424 118.308 176.418 118.314C176.411 118.321 176.403 118.324 176.394 118.324Z" fill="#00BE50"/>
<path d="M167.635 127.827L146.953 107.145C146.793 106.985 146.667 106.796 146.58 106.588C146.494 106.379 146.449 106.156 146.449 105.93C146.449 105.705 146.494 105.481 146.58 105.273C146.667 105.065 146.793 104.875 146.953 104.716L155.241 96.4274C155.4 96.2679 155.59 96.1414 155.798 96.0551C156.006 95.9687 156.23 95.9243 156.455 95.9243C156.681 95.9243 156.904 95.9687 157.113 96.0551C157.321 96.1414 157.51 96.2679 157.67 96.4274L167.635 106.393C167.794 106.552 167.984 106.679 168.192 106.765C168.401 106.851 168.624 106.896 168.849 106.896C169.075 106.896 169.298 106.851 169.507 106.765C169.715 106.679 169.905 106.552 170.064 106.393L180.03 96.4274C180.189 96.2679 180.378 96.1414 180.587 96.0551C180.795 95.9687 181.019 95.9243 181.244 95.9243C181.47 95.9243 181.693 95.9688 181.901 96.0551C182.11 96.1414 182.299 96.2679 182.459 96.4275L190.746 104.716C191.068 105.038 191.249 105.475 191.249 105.93C191.249 106.386 191.068 106.823 190.746 107.145L170.064 127.827C169.742 128.149 169.305 128.33 168.849 128.33C168.394 128.33 167.957 128.149 167.635 127.827Z" fill="#00BE50"/>
<path d="M11.5414 97.5726L3.25377 89.2843C2.93167 88.9622 2.75072 88.5253 2.75073 88.0698C2.75074 87.6143 2.93171 87.1774 3.25382 86.8553L23.9362 66.1732C24.2583 65.8511 24.6952 65.6702 25.1507 65.6702C25.6063 65.6702 26.0431 65.8511 26.3653 66.1732L47.0476 86.8552C47.2071 87.0147 47.3336 87.2041 47.4199 87.4125C47.5062 87.6209 47.5507 87.8442 47.5507 88.0698C47.5507 88.2953 47.5062 88.5187 47.4199 88.7271C47.3336 88.9355 47.2071 89.1248 47.0476 89.2843L38.7593 97.5726C38.5998 97.7321 38.4104 97.8587 38.2021 97.945C37.9937 98.0313 37.7703 98.0757 37.5447 98.0757C37.3192 98.0757 37.0958 98.0313 36.8874 97.945C36.679 97.8587 36.4897 97.7321 36.3302 97.5726L26.3653 87.6074C26.2058 87.4479 26.0164 87.3214 25.808 87.2351C25.5996 87.1487 25.3763 87.1043 25.1507 87.1043C24.9251 87.1043 24.7018 87.1487 24.4934 87.235C24.285 87.3213 24.0956 87.4479 23.9361 87.6074L13.9706 97.5726C13.8111 97.7321 13.6217 97.8587 13.4133 97.945C13.2049 98.0313 12.9816 98.0757 12.756 98.0757C12.5304 98.0757 12.3071 98.0313 12.0987 97.9449C11.8903 97.8586 11.7009 97.7321 11.5414 97.5726Z" fill="#00BE50"/>
<path d="M68.742 103.917H57.8407C56.7878 103.917 55.9343 104.77 55.9343 105.823V125.285C55.9343 126.337 56.7878 127.191 57.8407 127.191H68.742C69.7949 127.191 70.6484 126.337 70.6484 125.285V105.823C70.6484 104.77 69.7949 103.917 68.742 103.917Z" fill="#0879F4"/>
<path d="M91.2144 79.0432H80.3131C79.2603 79.0432 78.4067 79.8967 78.4067 80.9496V125.285C78.4067 126.337 79.2603 127.191 80.3131 127.191H91.2144C92.2673 127.191 93.1208 126.337 93.1208 125.285V80.9496C93.1208 79.8967 92.2673 79.0432 91.2144 79.0432Z" fill="#0879F4"/>
<path d="M113.687 91.1278H102.786C101.733 91.1278 100.879 91.9813 100.879 93.0342V125.285C100.879 126.337 101.733 127.191 102.786 127.191H113.687C114.74 127.191 115.593 126.337 115.593 125.285V93.0342C115.593 91.9813 114.74 91.1278 113.687 91.1278Z" fill="#0879F4"/>
<path d="M136.159 66.8091H125.258C124.205 66.8091 123.352 67.6626 123.352 68.7155V125.284C123.352 126.337 124.205 127.191 125.258 127.191H136.159C137.212 127.191 138.066 126.337 138.066 125.284V68.7155C138.066 67.6626 137.212 66.8091 136.159 66.8091Z" fill="#0879F4"/>
</svg>
