<svg width="210" height="210" viewBox="0 0 210 210" fill="none" xmlns="http://www.w3.org/2000/svg">
<path d="M99.6591 28.1466L14.4769 175.686C13.9356 176.624 13.6506 177.687 13.6506 178.77C13.6506 179.853 13.9356 180.916 14.4769 181.854C15.0182 182.791 15.7967 183.57 16.7342 184.111C17.6717 184.652 18.7352 184.937 19.8178 184.937H190.182C191.265 184.937 192.328 184.652 193.266 184.111C194.203 183.57 194.982 182.791 195.523 181.854C196.064 180.916 196.349 179.853 196.349 178.77C196.349 177.687 196.064 176.624 195.523 175.686L110.341 28.1466C109.8 27.209 109.021 26.4305 108.084 25.8892C107.146 25.3479 106.083 25.063 105 25.063C103.917 25.063 102.854 25.3479 101.916 25.8892C100.979 26.4305 100.2 27.209 99.6591 28.1466Z" fill="#00BE50"/>
<path d="M117.047 133.291L119.565 75.6576C119.585 75.1902 119.511 74.7235 119.346 74.2856C119.181 73.8477 118.929 73.4477 118.606 73.1097C118.282 72.7717 117.894 72.5028 117.463 72.319C117.033 72.1353 116.57 72.0405 116.102 72.0405H93.8975C93.4296 72.0405 92.9666 72.1353 92.5363 72.319C92.106 72.5028 91.7174 72.7717 91.3938 73.1097C91.0703 73.4477 90.8186 73.8477 90.6538 74.2856C90.489 74.7235 90.4145 75.1902 90.4349 75.6576L92.9529 133.291C92.9919 134.183 93.3738 135.026 94.0188 135.643C94.6639 136.261 95.5225 136.605 96.4155 136.605H113.584C114.477 136.605 115.336 136.261 115.981 135.643C116.626 135.026 117.008 134.183 117.047 133.291Z" fill="white"/>
<path d="M93.6349 148.897L94.241 162.77C94.28 163.663 94.6618 164.505 95.3069 165.123C95.952 165.74 96.8105 166.085 97.7035 166.085H112.297C113.19 166.085 114.048 165.74 114.693 165.123C115.338 164.505 115.72 163.663 115.759 162.77L116.365 148.897C116.386 148.429 116.311 147.962 116.146 147.525C115.982 147.087 115.73 146.687 115.406 146.349C115.083 146.011 114.694 145.742 114.264 145.558C113.834 145.374 113.371 145.28 112.903 145.28H97.0974C96.6295 145.28 96.1665 145.374 95.7362 145.558C95.306 145.742 94.9173 146.011 94.5938 146.349C94.2703 146.687 94.0185 147.087 93.8537 147.525C93.6889 147.962 93.6145 148.429 93.6349 148.897Z" fill="white"/>
</svg>
